# xmcd CD database file
#
# Track frame offsets:
#	150
#	21820
#	44202
#	68042
#	90900
#	111317
#	118402
#	144202
#	164822
#	188080
#	214427
#	237445
#
# Disc length: 3216 seconds
#
# Revision: 0
# Processed by: cddbd v1.5.1PL0 Copyright (c) Steve Scherf et al.
# Submitted via: CDex 1.51
#
DISCID=b50c8e0c
DTITLE=Hip Hop Finger - SubHop
DYEAR=1992
DGENRE=Jazz
TTITLE0=Monology
TTITLE1=Neptune's Lady
TTITLE2=Soul
TTITLE3=Boundaries
TTITLE4=Love is blind
TTITLE5=Malli meets the sample
TTITLE6=Jazz music
TTITLE7=Got a light?
TTITLE8=Hot pants
TTITLE9=Damballa
TTITLE10=Playing in the yard
TTITLE11=extro
EXTD=YEAR: 1992
EXTT0=
EXTT1=
EXTT2=
EXTT3=
EXTT4=
EXTT5=
EXTT6=
EXTT7=
EXTT8=
EXTT9=
EXTT10=
EXTT11=
PLAYORDER=
